# xmcd CD database file
#
# Track frame offsets:
#	151
#	19400
#	43515
#	66656
#	94353
#	102564
#	115775
#	128796
#	147047
#	167494
#	185401
#	213112
#	238275
#	262200
#	291147
#	310148
#
# Disc length: 4402 seconds
#
# Revision: 2
# Processed by: cddbd v1.5.2PL0 Copyright (c) Steve Scherf et al.
# Submitted via: CDex 1.70beta2
#
DISCID=f5113010
DTITLE=Matthew Lien - The Arctic Refuge
DYEAR=1900
DGENRE=New Age
TTITLE0=Heart of the Refuge
TTITLE1=Among the Rafters Of the Earth
TTITLE2=Currents
TTITLE3=Under Mountain and Valley
TTITLE4=legend of the man without fire
TTITLE5=Moon Over Crow Mountain
TTITLE6=A Perilous Trek
TTITLE7=The Journey Home
TTITLE8=Renewal
TTITLE9=One River to the Sea
TTITLE10=Whales
TTITLE11=Unicorn
TTITLE12=Bressanone
TTITLE13=Bleeding Wolves 
TTITLE14=Confluence 
TTITLE15=Island Collage 繙瞿翻??罈???簞
EXTD=
EXTT0=
EXTT1=
EXTT2=
EXTT3=
EXTT4=
EXTT5=
EXTT6=
EXTT7=
EXTT8=
EXTT9=
EXTT10=
EXTT11=
EXTT12=
EXTT13=
EXTT14=
EXTT15=
PLAYORDER=
